<?xml version="1.0" encoding="UTF-8"?>
<svg width="272px" height="272px" viewBox="0 0 272 272" version="1.1" xmlns="http://www.w3.org/2000/svg" xmlns:xlink="http://www.w3.org/1999/xlink">
    <!-- Generator: Sketch 53.2 (72643) - https://sketchapp.com -->
    <title>Group 5</title>
    <desc>Created with Sketch.</desc>
    <g id="Symbols" stroke="none" stroke-width="1" fill="none" fill-rule="evenodd">
        <g id="Check-in-Flow-Scan-Foundation" transform="translate(-954.000000, -319.000000)">
            <g id="Group-6">
                <g id="Group-5" transform="translate(954.000000, 319.000000)">
                    <circle id="Oval" fill="#000000" fill-rule="nonzero" opacity="0.100000001" cx="136" cy="136" r="136"></circle>
                    <g id="Group-2" transform="translate(72.000000, 62.000000)">
                        <g id="Group" transform="translate(55.592431, 81.151162) rotate(-1.000000) translate(-55.592431, -81.151162) translate(1.592431, 1.151162)">
                            <path d="M44.201377,41.7419396 C44.201377,41.7419396 41.7619999,42.5736612 41.180012,44.4827072 C40.5980241,46.3917533 43.4542484,50.0321655 44.201377,53.4157292 C44.9485057,56.7992929 45.1735765,58.2495202 45.1735765,60.2143442 C45.1735765,62.1791682 44.3909722,66.0971209 43.1379699,67.7839547 C41.8849675,69.4707885 41.1023633,70.6592192 43.1379699,71.758585 C45.1735765,72.8579508 46.3131363,74.2807389 47.6378136,74.2807389 C48.5209317,74.2807389 49.9592542,74.2807389 51.952781,74.2807389 L56.0084953,53.4157292 C48.1370831,45.6332028 44.201377,41.7419396 44.201377,41.7419396 Z" id="Trigger" fill="#F8D438"></path>
                            <path d="M46.9228696,44.2267583 C44.0660534,44.0690206 43.0481295,44.8675302 43.8690979,46.6222872 C45.1005505,49.2544227 48.1758719,52.8959595 48.5554293,59.8272721 C48.9349866,66.7585847 48.0820007,69.3482119 49.4645911,70.7867438 C50.3863181,71.7457651 51.825818,72.6136973 53.7830908,73.3905405 L57.463687,55.3542387 L46.9228696,44.2267583 Z" id="Trigger-Shadow" fill="#000000" opacity="0.100000001"></path>
                            <path d="M43.8412415,3.50495952 C44.6584366,5.33337491 45.8330296,6.7271682 47.3650206,7.68633939 C48.4771005,8.3826065 49.3302548,8.84590095 50.2673641,9.18363925 C51.2666845,9.54379872 52.3614767,9.7611783 53.9675423,9.96603906 C57.0796904,10.3630073 66.0450119,10.2107424 72.4593087,10.5413618 C78.8736055,10.8719813 83.5610274,10.7352353 86.1759776,13.5241338 C88.7909278,16.3130324 91.0891363,23.107599 91.0891363,25.8458925 C91.0891363,28.5841861 92.731665,29.6729811 91.9654476,32.3633686 C91.1992301,35.053756 89.0486272,38.9424702 88.4493262,41.5345715 C87.8500251,44.1266728 86.9015758,49.6837781 88.995356,59.2042681 C91.0891363,68.7247582 97.1538408,89.7694719 98.9890337,98.7902093 C100.824227,107.810947 105.081262,131.317088 105.454382,134.732814 C105.703129,137.009965 105.483459,138.939778 104.795373,140.522253 L84.3407846,139.65702 L75.5574731,128.251774 L69.1078841,98.0023454 C71.6435934,94.828099 72.911448,93.0593226 72.911448,92.6960161 C72.911448,92.3327095 71.50642,90.1168097 68.6963641,86.0483165 L55.8571163,83.5020971 C55.277496,82.494495 53.9235196,81.0947978 51.795187,79.3030054 C48.6026882,76.6153169 48.6939706,76.2619814 48.9436794,75.6959925 C49.1933882,75.1300035 51.5813253,71.2036167 51.5813253,64.6718588 C51.5813253,58.1401009 50.1714142,54.6164175 49.2284029,52.0086849 C48.2853916,49.4009523 46.1342338,46.9303031 44.7507363,45.8790682 C43.3672388,44.8278334 41.3758946,44.135107 39.3986451,44.6235016 C38.0804788,44.949098 35.8046886,46.0496259 32.5712746,47.9250852 C32.0031224,47.718017 31.4551319,47.1351597 30.927303,46.1765133 C30.1355598,44.7385437 28.7419629,42.2349449 28.3192337,38.6048786 C28.0374142,36.1848343 28.0374142,34.5481557 28.3192337,33.6948427 L29.3548037,18.2460315 C35.7016236,6.9132822 39.3947978,1.43905667 40.4343261,1.82335489 C41.4738544,2.20765312 42.6094929,2.76818799 43.8412415,3.50495952 Z" id="Grey" fill="#B9B9B9"></path>
                            <path d="M1.6669849,7.75201346 C25.3906493,2.64173169 38.0311289,0.134496882 39.5884238,0.230309043 C41.1457186,0.326121203 42.5633245,1.41767136 43.8412415,3.50495952 C43.3499626,5.2270669 43.1880404,6.56088387 43.3554747,7.50641045 C43.6066262,8.92470032 44.4747249,10.3622201 45.733479,11.1447985 C46.9922332,11.927377 48.6291019,12.4049758 50.0025001,12.4049758 C50.9180989,12.4049758 63.0703701,12.8826497 86.4593138,13.8379974 C87.7008288,14.145226 89.0396747,14.7971686 90.4758515,15.793825 C92.6301168,17.2888095 93.4380079,18.3598928 93.6988703,19.1750271 C93.9597327,19.9901614 93.3442839,22.3854092 93.6988703,23.5544975 C94.0534568,24.7235858 94.905685,26.4094075 94.905685,27.4014907 C94.905685,28.3935739 91.9654476,32.3633686 91.9654476,32.3633686 C91.9654476,32.3633686 91.3491663,30.7864039 85.1159916,30.7864039 C78.8828169,30.7864039 35.1501863,30.1982677 33.1246292,30.3165644 C31.099072,30.4348612 29.159365,33.1199698 29.4647865,36.6908845 C29.6684009,39.0714943 30.7038969,42.8162279 32.5712746,47.9250852 C32.1371882,48.3066845 30.9231967,48.4974841 28.9293,48.4974841 C25.9384549,48.4974841 10.7650405,39.0648219 9.04149512,37.5632025 C7.89246486,36.5621228 6.77032917,34.5281011 5.67508803,31.4611374 C3.44613211,24.9619541 1.94303332,19.8945929 1.16579167,16.2590537 C-7.08085686e-05,10.8057449 -0.210159116,9.80140408 0.178498704,8.92470032 C0.437603916,8.34023115 0.933765983,7.94933553 1.6669849,7.75201346 Z" id="Black-Top" fill="#000000"></path>
                            <path d="M53.6724657,80.9744285 C57.0249103,82.0681744 60.6976929,82.5292438 64.6908135,82.3576366 C70.6804944,82.1002257 70.4327833,82.1346371 71.9402474,82.1346371 C73.4477115,82.1346371 75.6646814,81.5927137 76.9499601,84.7702587 C77.8068126,86.8886221 78.4793616,89.1731948 78.9676069,91.6239769 C79.3103923,93.5477172 78.9070849,95.0632062 77.7576847,96.1704439 C76.0335844,97.8313005 75.2038855,98.9671019 74.9126695,99.840432 C74.6214536,100.713762 74.3659738,101.863283 75.4863338,104.863261 C76.6066938,107.863238 80.2174825,120.341535 81.2339637,123.859146 C82.2504448,127.376757 84.0191598,133.710031 85.9270457,135.014853 C87.8349316,136.319675 94.5509876,137.527336 96.8452007,137.527336 C99.1394139,137.527336 102.99858,137.406446 104.125377,136.731038 C104.876574,136.280765 105.380246,135.708704 105.636392,135.014853 C107.167717,135.724822 107.93338,136.660041 107.93338,137.820507 C107.93338,139.561207 106.69316,142.626859 106.411044,143.166084 C106.128929,143.705308 105.64183,152.206163 104.883603,153.317674 C104.125377,154.429185 103.101349,155.666534 99.8509174,156.108485 C97.6839632,156.403118 96.4543603,156.549723 96.1621085,156.548299 C95.7635364,157.430775 95.1816594,157.872013 94.4164778,157.872013 C93.6512962,157.872013 85.5727182,158.491681 70.1807439,159.731017 C67.4541462,159.827728 65.3078346,159.01445 63.7418092,157.29118 C62.1757838,155.567911 60.915476,153.817614 59.9608856,152.040291 C59.0420313,151.694453 58.516977,151.377741 58.3857227,151.090154 C58.1888412,150.658775 56.0697572,147.09337 56.5790521,146.038424 C56.918582,145.335127 59.7063306,144.011487 64.942298,142.067505 C67.9220819,140.948572 69.4119739,140.031422 69.4119739,139.316054 C69.4119739,138.243003 65.2565981,126.148405 63.7418092,113.552029 C62.2270204,100.955654 61.4412701,93.1157003 59.2948846,89.6205807 C57.8639609,87.2905009 55.9898212,84.4084502 53.6724657,80.9744285 Z" id="Black-Bottom" fill="#000000"></path>
                        </g>
                        <path d="M61.9577363,39.7663131 C57.2923073,39.8097475 54.9591946,41.5729275 54.958398,45.055853 C54.9576014,48.5387785 57.2898755,50.4426856 61.9552202,50.7675744 L88.6766077,50.7613819 C88.565626,48.718154 88.6399016,46.8136892 88.8994347,45.0479874 C89.1589677,43.2822856 89.6237201,41.5195386 90.2936917,39.7597465 L61.9577363,39.7663131 Z" id="Path" fill="#000000" opacity="0.100000001" transform="translate(72.626045, 45.263660) rotate(-1.000000) translate(-72.626045, -45.263660) "></path>
                        <rect id="Rectangle" fill="#FFFFFF" opacity="0.200000003" x="32.5" y="20" width="55" height="5" rx="2.5"></rect>
                    </g>
                </g>
            </g>
        </g>
    </g>
</svg>